<?xml version="1.0" encoding="utf-8"?>
<svg width="253.2002px" height="60.503296px" viewBox="0 0 253.2002 60.503296" version="1.1" xmlns:xlink="http://www.w3.org/1999/xlink" xmlns="http://www.w3.org/2000/svg">
  <g id="Group-11">
    <g id="JAMES--COOLIDGE" transform="translate(76.200195 8.003296)">
      <g id="JAMES" fill="#243C6E">
        <path d="M19.776 32.772C19.488 32.772 19.192 32.716 18.888 32.604Q18.432 32.436 18.12 32.148Q17.808 31.86 17.808 31.476Q17.808 31.404 17.832 31.236L22.464 16.14Q22.632 15.612 23.22 15.348Q23.808 15.084 24.48 15.084Q25.176 15.084 25.752 15.348Q26.328 15.612 26.496 16.14L31.128 31.236Q31.176 31.404 31.176 31.476Q31.176 31.836 30.852 32.136Q30.528 32.436 30.072 32.604C29.768 32.716 29.472 32.772 29.184 32.772C28.928 32.772 28.708 32.728 28.524 32.64Q28.248 32.508 28.152 32.148L27.24 28.956L21.72 28.956L20.832 32.148Q20.736 32.508 20.448 32.64C20.256 32.728 20.032 32.772 19.776 32.772ZM64.164 32.532Q65.424 32.988 66.984 32.988Q68.64 32.988 69.924 32.4Q71.208 31.812 71.952 30.648Q72.696 29.484 72.696 27.78Q72.696 26.436 72.288 25.512Q71.88 24.588 71.184 23.964Q70.488 23.34 69.66 22.896Q68.832 22.452 68.016 22.116Q67.2 21.78 66.516 21.444Q65.832 21.108 65.412 20.676Q64.992 20.244 64.992 19.62Q64.992 19.02 65.304 18.624Q65.616 18.228 66.24 18Q66.864 17.772 67.704 17.772Q68.712 17.772 69.3 18Q69.888 18.228 70.26 18.456Q70.632 18.684 71.016 18.684Q71.448 18.684 71.724 18.384Q72 18.084 72.132 17.7Q72.264 17.316 72.264 17.028Q72.264 16.452 71.772 16.08Q71.28 15.708 70.524 15.492Q69.768 15.276 69.012 15.192Q68.256 15.108 67.704 15.108Q66.672 15.108 65.64 15.36Q64.608 15.612 63.756 16.176Q62.904 16.74 62.388 17.652Q61.872 18.564 61.872 19.908Q61.872 21.132 62.292 21.972Q62.712 22.812 63.396 23.388Q64.08 23.964 64.908 24.372Q65.736 24.78 66.552 25.14Q67.368 25.5 68.064 25.884Q68.76 26.268 69.168 26.796Q69.576 27.324 69.576 28.092Q69.576 28.812 69.204 29.268Q68.832 29.724 68.22 29.952Q67.608 30.18 66.888 30.18Q65.976 30.18 65.352 29.904Q64.728 29.628 64.296 29.256Q63.864 28.884 63.528 28.608Q63.192 28.332 62.808 28.332Q62.424 28.332 62.112 28.608Q61.8 28.884 61.62 29.28Q61.44 29.676 61.44 30.012Q61.44 30.708 62.172 31.392Q62.904 32.076 64.164 32.532ZM10.68 32.916Q9.048 32.916 7.74 32.34Q6.432 31.764 5.688 30.684Q4.944 29.604 4.944 28.14Q4.944 27.228 5.34 26.928Q5.736 26.628 6.528 26.628Q7.128 26.628 7.584 26.832Q8.04 27.036 8.064 27.612Q8.112 28.188 8.316 28.788Q8.52 29.388 9.048 29.784Q9.576 30.18 10.56 30.18Q11.784 30.18 12.444 29.496Q13.104 28.812 13.104 27.42L13.104 17.964L10.632 17.964Q10.176 17.964 9.924 17.556Q9.672 17.148 9.672 16.572Q9.672 16.092 9.9 15.66Q10.128 15.228 10.632 15.228L14.832 15.228Q15.36 15.228 15.792 15.48Q16.224 15.732 16.224 16.212L16.224 27.42Q16.224 29.412 15.468 30.624Q14.712 31.836 13.464 32.376Q12.216 32.916 10.68 32.916ZM33.3 32.52Q33.792 32.772 34.368 32.772Q34.968 32.772 35.448 32.52Q35.928 32.268 35.928 31.788L35.928 21.276L38.688 26.46Q38.904 26.82 39.18 26.952Q39.456 27.084 39.72 27.084Q40.008 27.084 40.296 26.94Q40.584 26.796 40.8 26.46L43.584 21.468L43.584 31.788Q43.584 32.268 44.076 32.52Q44.568 32.772 45.144 32.772Q45.72 32.772 46.212 32.52Q46.704 32.268 46.704 31.788L46.704 16.788Q46.704 15.924 46.224 15.576Q45.744 15.228 45.144 15.228Q44.592 15.228 44.184 15.348Q43.776 15.468 43.452 15.828Q43.128 16.188 42.696 16.884L39.744 22.26L36.816 16.884Q36.432 16.188 36.084 15.828Q35.736 15.468 35.34 15.348Q34.944 15.228 34.368 15.228Q33.792 15.228 33.3 15.576Q32.808 15.924 32.808 16.788L32.808 31.788Q32.808 32.268 33.3 32.52ZM50.952 32.772Q50.448 32.772 50.016 32.52Q49.584 32.268 49.584 31.788L49.584 16.212Q49.584 15.732 50.016 15.48Q50.448 15.228 50.952 15.228L59.496 15.228Q60.024 15.228 60.252 15.66Q60.48 16.092 60.48 16.572Q60.48 17.148 60.228 17.556Q59.976 17.964 59.496 17.964L52.704 17.964L52.704 22.764L56.352 22.764Q56.832 22.764 57.084 23.136Q57.336 23.508 57.336 24.012Q57.336 24.42 57.108 24.816Q56.88 25.212 56.352 25.212L52.704 25.212L52.704 30.036L59.496 30.036Q59.976 30.036 60.228 30.444Q60.48 30.852 60.48 31.428Q60.48 31.908 60.252 32.34C60.1 32.628 59.848 32.772 59.496 32.772L50.952 32.772ZM26.568 26.508L24.48 19.14L22.392 26.508L26.568 26.508Z" />
      </g>
      <g id="-COOLIDGE" fill="#243C6E">
        <path d="M82.332 32.412Q83.472 32.916 84.816 32.916Q86.4 32.916 87.516 32.352Q88.632 31.788 89.232 30.864Q89.832 29.94 89.832 28.86Q89.832 28.284 89.628 28.08Q89.424 27.876 89.016 27.876Q88.656 27.876 88.464 28.032Q88.272 28.188 88.248 28.5Q88.176 28.932 88.056 29.448Q87.936 29.964 87.612 30.408Q87.288 30.852 86.664 31.152Q86.04 31.452 84.96 31.452Q83.232 31.452 82.332 30.564Q81.432 29.676 81.432 27.78L81.432 20.34Q81.432 18.468 82.32 17.58Q83.208 16.692 84.888 16.692Q85.944 16.692 86.604 16.992Q87.264 17.292 87.612 17.748Q87.96 18.204 88.092 18.708Q88.224 19.212 88.248 19.596Q88.248 19.836 88.428 20.016Q88.608 20.196 89.04 20.196Q89.424 20.196 89.628 20.004Q89.832 19.812 89.832 19.236Q89.832 18.156 89.244 17.244Q88.656 16.332 87.552 15.78Q86.448 15.228 84.864 15.228Q83.496 15.228 82.356 15.732Q81.216 16.236 80.532 17.364Q79.848 18.492 79.848 20.34L79.848 27.78Q79.848 29.652 80.52 30.78Q81.192 31.908 82.332 32.412ZM94.896 32.412Q96.024 32.916 97.416 32.916Q98.832 32.916 99.96 32.412Q101.088 31.908 101.76 30.78Q102.432 29.652 102.432 27.78L102.432 20.34Q102.432 18.492 101.76 17.364Q101.088 16.236 99.96 15.732Q98.832 15.228 97.416 15.228Q96 15.228 94.884 15.732Q93.768 16.236 93.108 17.364Q92.448 18.492 92.448 20.34L92.448 27.78Q92.448 29.652 93.108 30.78Q93.768 31.908 94.896 32.412ZM110.688 32.916Q109.296 32.916 108.168 32.412Q107.04 31.908 106.38 30.78Q105.72 29.652 105.72 27.78L105.72 20.34Q105.72 18.492 106.38 17.364Q107.04 16.236 108.156 15.732Q109.272 15.228 110.688 15.228Q112.104 15.228 113.232 15.732Q114.36 16.236 115.032 17.364Q115.704 18.492 115.704 20.34L115.704 27.78Q115.704 29.652 115.032 30.78Q114.36 31.908 113.232 32.412Q112.104 32.916 110.688 32.916ZM119.388 32.616C119.54 32.72 119.704 32.772 119.88 32.772L127.584 32.772Q127.872 32.772 127.992 32.544Q128.112 32.316 128.112 32.028Q128.112 31.764 127.992 31.536Q127.872 31.308 127.584 31.308L120.744 31.308L120.744 15.804Q120.744 15.492 120.492 15.36Q120.24 15.228 119.952 15.228Q119.64 15.228 119.4 15.36Q119.16 15.492 119.16 15.804L119.16 32.148Q119.16 32.46 119.388 32.616ZM131.04 32.772C130.832 32.772 130.648 32.72 130.488 32.616Q130.248 32.46 130.248 32.148L130.248 15.804Q130.248 15.516 130.488 15.372Q130.728 15.228 131.04 15.228Q131.328 15.228 131.58 15.372Q131.832 15.516 131.832 15.804L131.832 32.148Q131.832 32.46 131.58 32.616C131.412 32.72 131.232 32.772 131.04 32.772ZM135.684 32.604C135.82 32.716 135.992 32.772 136.2 32.772L140.448 32.772Q141.864 32.772 143.004 32.268Q144.144 31.764 144.804 30.636Q145.464 29.508 145.464 27.636L145.464 20.34Q145.464 18.492 144.804 17.364Q144.144 16.236 143.004 15.732Q141.864 15.228 140.448 15.228L136.2 15.228Q135.888 15.228 135.684 15.396Q135.48 15.564 135.48 15.804L135.48 32.172Q135.48 32.436 135.684 32.604ZM153.72 32.916Q152.328 32.916 151.2 32.412Q150.072 31.908 149.412 30.78Q148.752 29.652 148.752 27.78L148.752 20.34Q148.752 18.492 149.412 17.364Q150.072 16.236 151.188 15.732Q152.304 15.228 153.696 15.228Q155.232 15.228 156.36 15.768Q157.488 16.308 158.112 17.244Q158.736 18.18 158.736 19.38Q158.736 19.836 158.52 20.016Q158.304 20.196 157.944 20.196Q157.632 20.196 157.404 20.052Q157.176 19.908 157.152 19.596Q157.032 18.66 156.624 18.012Q156.216 17.364 155.496 17.028Q154.776 16.692 153.72 16.692Q152.112 16.692 151.224 17.58Q150.336 18.468 150.336 20.34L150.336 27.78Q150.336 29.652 151.224 30.552Q152.112 31.452 153.72 31.452Q155.328 31.452 156.24 30.552Q157.152 29.652 157.152 27.78L157.152 24.924L153.936 24.924Q153.648 24.924 153.492 24.708Q153.336 24.492 153.336 24.228Q153.336 23.988 153.492 23.772Q153.648 23.556 153.936 23.556L158.136 23.556Q158.424 23.556 158.58 23.736Q158.736 23.916 158.736 24.18L158.736 27.78Q158.736 29.652 158.064 30.78Q157.392 31.908 156.264 32.412Q155.136 32.916 153.72 32.916ZM162.156 32.616C162.308 32.72 162.472 32.772 162.648 32.772L171.192 32.772Q171.504 32.772 171.648 32.544Q171.792 32.316 171.792 32.052Q171.792 31.74 171.636 31.524Q171.48 31.308 171.192 31.308L163.512 31.308L163.512 24.66L167.28 24.66Q167.592 24.66 167.736 24.444Q167.88 24.228 167.88 24.012Q167.88 23.724 167.724 23.508Q167.568 23.292 167.28 23.292L163.512 23.292L163.512 16.692L171.192 16.692Q171.48 16.692 171.636 16.464Q171.792 16.236 171.792 15.924Q171.792 15.684 171.648 15.456Q171.504 15.228 171.192 15.228L162.648 15.228Q162.384 15.228 162.156 15.384Q161.928 15.54 161.928 15.828L161.928 32.148Q161.928 32.46 162.156 32.616ZM99.936 30.564Q99.024 31.452 97.416 31.452Q95.808 31.452 94.92 30.564Q94.032 29.676 94.032 27.78L94.032 20.34Q94.032 18.468 94.92 17.58Q95.808 16.692 97.416 16.692Q99.024 16.692 99.936 17.58Q100.848 18.468 100.848 20.34L100.848 27.78Q100.848 29.676 99.936 30.564ZM110.688 31.452Q112.296 31.452 113.208 30.564Q114.12 29.676 114.12 27.78L114.12 20.34Q114.12 18.468 113.208 17.58Q112.296 16.692 110.688 16.692Q109.08 16.692 108.192 17.58Q107.304 18.468 107.304 20.34L107.304 27.78Q107.304 29.676 108.192 30.564Q109.08 31.452 110.688 31.452ZM140.448 31.308L137.064 31.308L137.064 16.692L140.448 16.692Q142.056 16.692 142.968 17.58Q143.88 18.468 143.88 20.34L143.88 27.636Q143.88 29.532 142.968 30.42Q142.056 31.308 140.448 31.308Z" />
      </g>
    </g>
    <g id="Group-8-Copy-2">
      <path d="M20.4907 6.98132L50.8132 6.98132Q50.9617 6.98132 51.11 6.98861Q51.2583 6.9959 51.4061 7.01045Q51.5539 7.02501 51.7008 7.0468Q51.8477 7.06859 51.9933 7.09756Q52.139 7.12653 52.283 7.16261Q52.4271 7.1987 52.5692 7.24181Q52.7113 7.28491 52.8511 7.33494Q52.991 7.38497 53.1282 7.4418Q53.2653 7.49863 53.3996 7.56212Q53.5338 7.62562 53.6648 7.69562Q53.7958 7.76563 53.9232 7.84197Q54.0505 7.91832 54.174 8.00082Q54.2975 8.08332 54.4168 8.17179Q54.536 8.26025 54.6508 8.35446Q54.7656 8.44867 54.8757 8.5484Q54.9857 8.64813 55.0907 8.75313Q55.1957 8.85814 55.2954 8.96817Q55.3952 9.07821 55.4894 9.193Q55.5836 9.3078 55.672 9.42707Q55.7605 9.54635 55.843 9.66983Q55.9255 9.7933 56.0019 9.92068Q56.0782 10.0481 56.1482 10.179Q56.2182 10.31 56.2817 10.4442Q56.3452 10.5785 56.402 10.7157Q56.4589 10.8529 56.5089 10.9927Q56.5589 11.1325 56.602 11.2746Q56.6451 11.4167 56.6812 11.5608Q56.7173 11.7048 56.7463 11.8505Q56.7752 11.9961 56.797 12.143Q56.8188 12.2899 56.8334 12.4377Q56.8479 12.5855 56.8552 12.7338Q56.8625 12.8822 56.8625 13.0307L56.8625 13.0327Q56.8625 13.1812 56.8552 13.3295Q56.8479 13.4778 56.8334 13.6256Q56.8188 13.7734 56.797 13.9203Q56.7752 14.0672 56.7463 14.2128Q56.7173 14.3585 56.6812 14.5025Q56.6451 14.6466 56.602 14.7887Q56.5589 14.9308 56.5089 15.0706Q56.4589 15.2104 56.402 15.3476Q56.3452 15.4848 56.2817 15.6191Q56.2182 15.7533 56.1482 15.8843Q56.0782 16.0153 56.0019 16.1426Q55.9255 16.27 55.843 16.3935Q55.7605 16.517 55.672 16.6362Q55.5836 16.7555 55.4894 16.8703Q55.3952 16.9851 55.2954 17.0951Q55.1957 17.2052 55.0907 17.3102Q54.9857 17.4152 54.8757 17.5149Q54.7656 17.6147 54.6508 17.7089Q54.536 17.8031 54.4168 17.8915Q54.2975 17.98 54.174 18.0625Q54.0505 18.145 53.9232 18.2213Q53.7958 18.2977 53.6648 18.3677Q53.5338 18.4377 53.3996 18.5012Q53.2653 18.5647 53.1282 18.6215Q52.991 18.6784 52.8511 18.7284Q52.7113 18.7784 52.5692 18.8215Q52.4271 18.8646 52.283 18.9007Q52.139 18.9368 51.9933 18.9658Q51.8477 18.9947 51.7008 19.0165Q51.5539 19.0383 51.4061 19.0529Q51.2583 19.0674 51.11 19.0747Q50.9617 19.082 50.8132 19.082L20.4907 19.082Q20.3422 19.082 20.1939 19.0747Q20.0456 19.0674 19.8978 19.0529Q19.75 19.0383 19.6031 19.0165Q19.4562 18.9947 19.3106 18.9658Q19.1649 18.9368 19.0209 18.9007Q18.8768 18.8646 18.7347 18.8215Q18.5926 18.7784 18.4528 18.7284Q18.313 18.6784 18.1758 18.6215Q18.0386 18.5647 17.9043 18.5012Q17.7701 18.4377 17.6391 18.3677Q17.5081 18.2977 17.3808 18.2213Q17.2534 18.145 17.1299 18.0625Q17.0064 17.98 16.8872 17.8915Q16.7679 17.8031 16.6531 17.7089Q16.5383 17.6147 16.4283 17.5149Q16.3182 17.4152 16.2132 17.3102Q16.1082 17.2052 16.0085 17.0951Q15.9088 16.9851 15.8145 16.8703Q15.7203 16.7555 15.6319 16.6362Q15.5434 16.517 15.4609 16.3935Q15.3784 16.27 15.3021 16.1426Q15.2257 16.0153 15.1557 15.8843Q15.0857 15.7533 15.0222 15.6191Q14.9587 15.4848 14.9019 15.3476Q14.8451 15.2104 14.795 15.0706Q14.745 14.9308 14.7019 14.7887Q14.6588 14.6466 14.6227 14.5025Q14.5866 14.3585 14.5576 14.2128Q14.5287 14.0672 14.5069 13.9203Q14.4851 13.7734 14.4705 13.6256Q14.456 13.4778 14.4487 13.3295Q14.4414 13.1812 14.4414 13.0327L14.4414 13.0307Q14.4414 12.8822 14.4487 12.7338Q14.456 12.5855 14.4705 12.4377Q14.4851 12.2899 14.5069 12.143Q14.5287 11.9961 14.5576 11.8505Q14.5866 11.7048 14.6227 11.5608Q14.6588 11.4167 14.7019 11.2746Q14.745 11.1325 14.795 10.9927Q14.8451 10.8529 14.9019 10.7157Q14.9587 10.5785 15.0222 10.4442Q15.0857 10.31 15.1557 10.179Q15.2257 10.0481 15.3021 9.92068Q15.3784 9.7933 15.4609 9.66983Q15.5434 9.54635 15.6319 9.42707Q15.7203 9.3078 15.8145 9.193Q15.9088 9.07821 16.0085 8.96817Q16.1082 8.85814 16.2132 8.75313Q16.3182 8.64813 16.4283 8.5484Q16.5383 8.44867 16.6531 8.35446Q16.7679 8.26025 16.8872 8.17179Q17.0064 8.08332 17.1299 8.00082Q17.2534 7.91832 17.3808 7.84197Q17.5081 7.76563 17.6391 7.69562Q17.7701 7.62562 17.9043 7.56212Q18.0386 7.49863 18.1758 7.4418Q18.313 7.38497 18.4528 7.33494Q18.5926 7.28491 18.7347 7.24181Q18.8768 7.1987 19.0209 7.16261Q19.1649 7.12653 19.3106 7.09756Q19.4562 7.06859 19.6031 7.0468Q19.75 7.02501 19.8978 7.01045Q20.0456 6.9959 20.1939 6.98861Q20.3422 6.98132 20.4907 6.98132Z" id="Rectangle-6" fill="#959292" fill-rule="evenodd" stroke="none" />
      <path d="M37.3656 12.5663L37.3676 12.5663Q37.5005 12.5663 37.6333 12.5728Q37.7661 12.5793 37.8983 12.5924Q38.0306 12.6054 38.1621 12.6249Q38.2936 12.6444 38.4239 12.6703Q38.5543 12.6963 38.6832 12.7285Q38.8122 12.7608 38.9394 12.7994Q39.0666 12.838 39.1917 12.8828Q39.3169 12.9276 39.4397 12.9784Q39.5625 13.0293 39.6826 13.0861Q39.8028 13.143 39.92 13.2056Q40.0372 13.2683 40.1512 13.3366Q40.2652 13.4049 40.3757 13.4788Q40.4863 13.5526 40.593 13.6318Q40.6998 13.711 40.8025 13.7953Q40.9053 13.8796 41.0038 13.9689Q41.1022 14.0582 41.1962 14.1521Q41.2902 14.2461 41.3795 14.3446Q41.4687 14.4431 41.5531 14.5458Q41.6374 14.6486 41.7166 14.7554Q41.7957 14.8621 41.8696 14.9726Q41.9434 15.0831 42.0118 15.1972Q42.0801 15.3112 42.1428 15.4284Q42.2054 15.5456 42.2622 15.6658Q42.3191 15.7859 42.3699 15.9087Q42.4208 16.0315 42.4656 16.1567Q42.5104 16.2818 42.5489 16.409Q42.5875 16.5362 42.6198 16.6651Q42.6521 16.7941 42.6781 16.9244Q42.704 17.0548 42.7235 17.1863Q42.743 17.3178 42.756 17.45Q42.7691 17.5823 42.7756 17.7151Q42.7821 17.8478 42.7821 17.9807L42.7821 47.1771Q42.7821 47.3101 42.7756 47.4428Q42.7691 47.5756 42.756 47.7078Q42.743 47.8401 42.7235 47.9716Q42.704 48.1031 42.6781 48.2334Q42.6521 48.3638 42.6198 48.4927Q42.5875 48.6217 42.5489 48.7489Q42.5104 48.8761 42.4656 49.0012Q42.4208 49.1264 42.3699 49.2492Q42.3191 49.372 42.2622 49.4921Q42.2054 49.6123 42.1428 49.7295Q42.0801 49.8467 42.0118 49.9607Q41.9434 50.0747 41.8696 50.1852Q41.7957 50.2958 41.7166 50.4025Q41.6374 50.5093 41.5531 50.612Q41.4687 50.7148 41.3795 50.8133Q41.2902 50.9118 41.1962 51.0057Q41.1022 51.0997 41.0038 51.189Q40.9053 51.2783 40.8025 51.3626Q40.6998 51.4469 40.593 51.5261Q40.4863 51.6053 40.3757 51.6791Q40.2652 51.7529 40.1512 51.8213Q40.0372 51.8896 39.92 51.9523Q39.8028 52.0149 39.6826 52.0718Q39.5625 52.1286 39.4397 52.1794Q39.3169 52.2303 39.1917 52.2751Q39.0666 52.3199 38.9394 52.3585Q38.8122 52.397 38.6832 52.4293Q38.5543 52.4616 38.4239 52.4876Q38.2936 52.5135 38.1621 52.533Q38.0306 52.5525 37.8983 52.5655Q37.7661 52.5786 37.6333 52.5851Q37.5005 52.5916 37.3676 52.5916L37.3656 52.5916Q37.2327 52.5916 37.1 52.5851Q36.9672 52.5786 36.8349 52.5655Q36.7026 52.5525 36.5712 52.533Q36.4397 52.5135 36.3093 52.4876Q36.179 52.4616 36.05 52.4293Q35.9211 52.397 35.7939 52.3585Q35.6667 52.3199 35.5416 52.2751Q35.4164 52.2303 35.2936 52.1794Q35.1708 52.1286 35.0507 52.0718Q34.9305 52.0149 34.8133 51.9523Q34.6961 51.8896 34.582 51.8213Q34.468 51.7529 34.3575 51.6791Q34.247 51.6053 34.1402 51.5261Q34.0335 51.4469 33.9307 51.3626Q33.828 51.2783 33.7295 51.189Q33.631 51.0997 33.537 51.0057Q33.443 50.9118 33.3538 50.8133Q33.2645 50.7148 33.1802 50.612Q33.0959 50.5093 33.0167 50.4025Q32.9375 50.2958 32.8637 50.1853Q32.7898 50.0747 32.7215 49.9607Q32.6532 49.8467 32.5905 49.7295Q32.5278 49.6123 32.471 49.4921Q32.4142 49.372 32.3633 49.2492Q32.3125 49.1264 32.2677 49.0012Q32.2229 48.8761 32.1843 48.7489Q32.1457 48.6217 32.1134 48.4927Q32.0811 48.3638 32.0552 48.2334Q32.0293 48.1031 32.0098 47.9716Q31.9903 47.8401 31.9772 47.7078Q31.9642 47.5756 31.9577 47.4428Q31.9512 47.3101 31.9512 47.1771L31.9512 17.9807Q31.9512 17.8478 31.9577 17.7151Q31.9642 17.5823 31.9772 17.45Q31.9903 17.3178 32.0098 17.1863Q32.0293 17.0548 32.0552 16.9244Q32.0811 16.7941 32.1134 16.6651Q32.1457 16.5362 32.1843 16.409Q32.2229 16.2818 32.2677 16.1567Q32.3125 16.0315 32.3633 15.9087Q32.4142 15.7859 32.471 15.6658Q32.5278 15.5456 32.5905 15.4284Q32.6532 15.3112 32.7215 15.1972Q32.7898 15.0831 32.8637 14.9726Q32.9375 14.8621 33.0167 14.7554Q33.0959 14.6486 33.1802 14.5458Q33.2645 14.4431 33.3538 14.3446Q33.443 14.2461 33.537 14.1521Q33.631 14.0582 33.7295 13.9689Q33.828 13.8796 33.9307 13.7953Q34.0335 13.711 34.1402 13.6318Q34.247 13.5526 34.3575 13.4788Q34.468 13.4049 34.582 13.3366Q34.6961 13.2683 34.8133 13.2056Q34.9305 13.143 35.0507 13.0861Q35.1708 13.0293 35.2936 12.9784Q35.4164 12.9276 35.5416 12.8828Q35.6667 12.838 35.7939 12.7994Q35.9211 12.7608 36.05 12.7285Q36.179 12.6963 36.3093 12.6703Q36.4397 12.6444 36.5712 12.6249Q36.7026 12.6054 36.8349 12.5924Q36.9672 12.5793 37.1 12.5728Q37.2327 12.5663 37.3656 12.5663Z" id="Rectangle-7" fill="#959292" fill-rule="evenodd" stroke="none" />
      <path d="M18.8625 0.465332L18.8645 0.465332Q19.1636 0.465332 19.4623 0.480008Q19.7611 0.494684 20.0587 0.524Q20.3564 0.553317 20.6522 0.597203Q20.9481 0.64109 21.2414 0.69944Q21.5348 0.757791 21.8249 0.830465Q22.115 0.903139 22.4013 0.989962Q22.6875 1.07678 22.9691 1.17755Q23.2507 1.27831 23.527 1.39277Q23.8034 1.50723 24.0737 1.63511Q24.3441 1.76299 24.6079 1.90398Q24.8717 2.04497 25.1282 2.19874Q25.3848 2.3525 25.6334 2.51867Q25.8821 2.68484 26.1224 2.86301Q26.3626 3.04118 26.5938 3.23092Q26.825 3.42067 27.0466 3.62153Q27.2682 3.82239 27.4797 4.03388Q27.6912 4.24537 27.8921 4.46699Q28.0929 4.6886 28.2827 4.91981Q28.4724 5.15101 28.6506 5.39124Q28.8288 5.63148 28.9949 5.88017Q29.1611 6.12886 29.3149 6.3854Q29.4686 6.64194 29.6096 6.90572Q29.7506 7.1695 29.8785 7.43988Q30.0064 7.71026 30.1208 7.98658Q30.2353 8.26291 30.3361 8.54452Q30.4368 8.82613 30.5237 9.11235Q30.6105 9.39857 30.6831 9.6887Q30.7558 9.97883 30.8142 10.2722Q30.8725 10.5655 30.9164 10.8614Q30.9603 11.1572 30.9896 11.4549Q31.0189 11.7526 31.0336 12.0513Q31.0483 12.35 31.0483 12.6491L31.0483 13.4137Q31.0483 13.7128 31.0336 14.0116Q31.0189 14.3103 30.9896 14.6079Q30.9603 14.9056 30.9164 15.2015Q30.8725 15.4973 30.8142 15.7907Q30.7558 16.084 30.6831 16.3741Q30.6105 16.6643 30.5236 16.9505Q30.4368 17.2367 30.3361 17.5183Q30.2353 17.7999 30.1208 18.0763Q30.0064 18.3526 29.8785 18.623Q29.7506 18.8933 29.6096 19.1571Q29.4686 19.4209 29.3149 19.6774Q29.1611 19.934 28.9949 20.1827Q28.8288 20.4314 28.6506 20.6716Q28.4724 20.9118 28.2827 21.143Q28.0929 21.3742 27.8921 21.5959Q27.6912 21.8175 27.4797 22.029Q27.2682 22.2404 27.0466 22.4413Q26.825 22.6422 26.5938 22.8319Q26.3626 23.0217 26.1224 23.1998Q25.8821 23.378 25.6334 23.5442Q25.3848 23.7103 25.1282 23.8641Q24.8717 24.0179 24.6079 24.1589Q24.3441 24.2999 24.0737 24.4277Q23.8034 24.5556 23.527 24.6701Q23.2507 24.7845 22.9691 24.8853Q22.6875 24.9861 22.4013 25.0729Q22.115 25.1597 21.8249 25.2324Q21.5348 25.305 21.2414 25.3634Q20.9481 25.4217 20.6522 25.4656Q20.3564 25.5095 20.0587 25.5388Q19.7611 25.5682 19.4623 25.5828Q19.1636 25.5975 18.8645 25.5975L18.8625 25.5975Q18.5634 25.5975 18.2647 25.5828Q17.9659 25.5682 17.6683 25.5388Q17.3706 25.5095 17.0748 25.4656Q16.7789 25.4217 16.4856 25.3634Q16.1922 25.305 15.9021 25.2324Q15.6119 25.1597 15.3257 25.0729Q15.0395 24.9861 14.7579 24.8853Q14.4763 24.7845 14.2 24.6701Q13.9236 24.5556 13.6533 24.4277Q13.3829 24.2999 13.1191 24.1589Q12.8553 24.0179 12.5988 23.8641Q12.3422 23.7103 12.0935 23.5442Q11.8449 23.378 11.6046 23.1998Q11.3644 23.0217 11.1332 22.8319Q10.902 22.6422 10.6804 22.4413Q10.4587 22.2404 10.2473 22.029Q10.0358 21.8175 9.83491 21.5959Q9.63405 21.3742 9.4443 21.143Q9.25456 20.9118 9.07639 20.6716Q8.89822 20.4314 8.73205 20.1827Q8.56588 19.934 8.41211 19.6774Q8.25835 19.4209 8.11736 19.1571Q7.97636 18.8933 7.84848 18.623Q7.7206 18.3526 7.60615 18.0763Q7.49169 17.7999 7.39092 17.5183Q7.29016 17.2367 7.20334 16.9505Q7.11652 16.6643 7.04384 16.3741Q6.97117 16.084 6.91282 15.7907Q6.85447 15.4973 6.81058 15.2015Q6.7667 14.9056 6.73738 14.6079Q6.70806 14.3103 6.69339 14.0116Q6.67871 13.7128 6.67871 13.4137L6.67871 12.6491Q6.67871 12.35 6.69339 12.0513Q6.70806 11.7526 6.73738 11.4549Q6.7667 11.1572 6.81058 10.8614Q6.85447 10.5655 6.91282 10.2722Q6.97117 9.97883 7.04384 9.6887Q7.11652 9.39857 7.20334 9.11235Q7.29016 8.82613 7.39093 8.54452Q7.49169 8.26291 7.60615 7.98658Q7.7206 7.71026 7.84848 7.43988Q7.97636 7.1695 8.11736 6.90572Q8.25835 6.64194 8.41211 6.3854Q8.56588 6.12886 8.73205 5.88017Q8.89822 5.63148 9.07639 5.39124Q9.25456 5.15101 9.4443 4.91981Q9.63405 4.6886 9.83491 4.46699Q10.0358 4.24537 10.2473 4.03388Q10.4587 3.82239 10.6804 3.62153Q10.902 3.42067 11.1332 3.23092Q11.3644 3.04118 11.6046 2.86301Q11.8449 2.68484 12.0935 2.51867Q12.3422 2.3525 12.5988 2.19874Q12.8553 2.04497 13.1191 1.90398Q13.3829 1.76299 13.6533 1.63511Q13.9236 1.50723 14.2 1.39277Q14.4763 1.27831 14.7579 1.17755Q15.0395 1.07678 15.3257 0.989962Q15.6119 0.903139 15.9021 0.830465Q16.1922 0.757791 16.4856 0.69944Q16.7789 0.641089 17.0748 0.597203Q17.3706 0.553317 17.6683 0.524Q17.9659 0.494684 18.2647 0.480008Q18.5634 0.465332 18.8625 0.465332Z" id="Rectangle-5" fill="#FFF200" fill-rule="evenodd" stroke="none" />
      <path d="M19.4838 43.2832L37.1984 43.2832Q37.3355 43.2832 37.4724 43.2899Q37.6093 43.2967 37.7457 43.3101Q37.8822 43.3235 38.0178 43.3436Q38.1533 43.3638 38.2878 43.3905Q38.4222 43.4172 38.5552 43.4505Q38.6882 43.4839 38.8194 43.5236Q38.9505 43.5634 39.0796 43.6096Q39.2087 43.6558 39.3353 43.7083Q39.4619 43.7607 39.5859 43.8193Q39.7098 43.8779 39.8307 43.9425Q39.9516 44.0072 40.0691 44.0776Q40.1867 44.1481 40.3007 44.2243Q40.4147 44.3004 40.5248 44.3821Q40.6349 44.4637 40.7408 44.5507Q40.8468 44.6377 40.9484 44.7297Q41.0499 44.8218 41.1469 44.9187Q41.2438 45.0156 41.3358 45.1172Q41.4279 45.2188 41.5149 45.3247Q41.6018 45.4307 41.6835 45.5408Q41.7651 45.6509 41.8413 45.7649Q41.9174 45.8788 41.9879 45.9964Q42.0584 46.114 42.123 46.2349Q42.1876 46.3558 42.2462 46.4797Q42.3048 46.6036 42.3573 46.7303Q42.4098 46.8569 42.4559 46.986Q42.5021 47.115 42.5419 47.2462Q42.5817 47.3774 42.615 47.5103Q42.6483 47.6433 42.6751 47.7778Q42.7018 47.9122 42.7219 48.0478Q42.742 48.1834 42.7555 48.3198Q42.7689 48.4562 42.7756 48.5931Q42.7824 48.7301 42.7824 48.8671L42.7824 48.8691Q42.7824 49.0062 42.7756 49.1431Q42.7689 49.28 42.7555 49.4165Q42.742 49.5529 42.7219 49.6885Q42.7018 49.8241 42.6751 49.9585Q42.6483 50.0929 42.615 50.2259Q42.5817 50.3589 42.5419 50.4901Q42.5021 50.6212 42.4559 50.7503Q42.4098 50.8794 42.3573 51.006Q42.3048 51.1326 42.2462 51.2566Q42.1876 51.3805 42.123 51.5014Q42.0584 51.6223 41.9879 51.7398Q41.9174 51.8574 41.8413 51.9714Q41.7651 52.0854 41.6835 52.1955Q41.6018 52.3056 41.5149 52.4115Q41.4279 52.5175 41.3358 52.6191Q41.2438 52.7206 41.1469 52.8176Q41.0499 52.9145 40.9484 53.0066Q40.8468 53.0986 40.7408 53.1856Q40.6349 53.2725 40.5248 53.3542Q40.4147 53.4358 40.3007 53.512Q40.1867 53.5882 40.0691 53.6586Q39.9516 53.7291 39.8307 53.7937Q39.7098 53.8583 39.5859 53.9169Q39.4619 53.9755 39.3353 54.028Q39.2087 54.0805 39.0796 54.1266Q38.9505 54.1728 38.8194 54.2126Q38.6882 54.2524 38.5552 54.2857Q38.4222 54.319 38.2878 54.3458Q38.1533 54.3725 38.0178 54.3926Q37.8822 54.4127 37.7457 54.4262Q37.6093 54.4396 37.4724 54.4463Q37.3355 54.4531 37.1984 54.4531L19.4838 54.4531Q19.3468 54.4531 19.2098 54.4463Q19.0729 54.4396 18.9365 54.4262Q18.8001 54.4127 18.6645 54.3926Q18.5289 54.3725 18.3945 54.3458Q18.26 54.319 18.127 54.2857Q17.9941 54.2524 17.8629 54.2126Q17.7317 54.1728 17.6027 54.1266Q17.4736 54.0805 17.347 54.028Q17.2203 53.9755 17.0964 53.9169Q16.9725 53.8583 16.8516 53.7937Q16.7307 53.7291 16.6131 53.6586Q16.4955 53.5882 16.3816 53.512Q16.2676 53.4358 16.1575 53.3542Q16.0474 53.2725 15.9414 53.1856Q15.8355 53.0986 15.7339 53.0066Q15.6323 52.9145 15.5354 52.8176Q15.4385 52.7206 15.3464 52.6191Q15.2544 52.5175 15.1674 52.4115Q15.0804 52.3056 14.9988 52.1955Q14.9171 52.0854 14.841 51.9714Q14.7648 51.8574 14.6943 51.7398Q14.6239 51.6223 14.5592 51.5014Q14.4946 51.3805 14.436 51.2566Q14.3774 51.1326 14.325 51.006Q14.2725 50.8794 14.2263 50.7503Q14.1801 50.6212 14.1403 50.4901Q14.1006 50.3589 14.0672 50.2259Q14.0339 50.0929 14.0072 49.9585Q13.9805 49.8241 13.9603 49.6885Q13.9402 49.5529 13.9268 49.4165Q13.9134 49.28 13.9066 49.1431Q13.8999 49.0062 13.8999 48.8691L13.8999 48.8671Q13.8999 48.7301 13.9066 48.5931Q13.9134 48.4562 13.9268 48.3198Q13.9402 48.1834 13.9603 48.0478Q13.9805 47.9122 14.0072 47.7778Q14.0339 47.6433 14.0672 47.5103Q14.1006 47.3774 14.1403 47.2462Q14.1801 47.115 14.2263 46.986Q14.2725 46.8569 14.325 46.7303Q14.3774 46.6036 14.436 46.4797Q14.4946 46.3558 14.5592 46.2349Q14.6239 46.114 14.6943 45.9964Q14.7648 45.8788 14.841 45.7649Q14.9171 45.6509 14.9988 45.5408Q15.0804 45.4307 15.1674 45.3247Q15.2544 45.2188 15.3464 45.1172Q15.4385 45.0156 15.5354 44.9187Q15.6323 44.8218 15.7339 44.7297Q15.8355 44.6377 15.9414 44.5507Q16.0474 44.4637 16.1575 44.3821Q16.2676 44.3004 16.3816 44.2243Q16.4955 44.1481 16.6131 44.0776Q16.7307 44.0072 16.8516 43.9425Q16.9725 43.8779 17.0964 43.8193Q17.2203 43.7607 17.347 43.7083Q17.4736 43.6558 17.6027 43.6096Q17.7317 43.5634 17.8629 43.5236Q17.9941 43.4839 18.127 43.4505Q18.26 43.4172 18.3945 43.3905Q18.5289 43.3638 18.6645 43.3436Q18.8001 43.3235 18.9365 43.3101Q19.0729 43.2967 19.2098 43.2899Q19.3468 43.2832 19.4838 43.2832Z" id="Rectangle-8" fill="#959292" fill-rule="evenodd" stroke="none" />
      <path d="M12.1838 35.3711L12.1858 35.3711Q12.4849 35.3711 12.7836 35.3858Q13.0824 35.4004 13.38 35.4298Q13.6777 35.4591 13.9735 35.503Q14.2694 35.5469 14.5627 35.6052Q14.8561 35.6636 15.1462 35.7362Q15.4363 35.8089 15.7226 35.8957Q16.0088 35.9825 16.2904 36.0833Q16.572 36.1841 16.8483 36.2985Q17.1246 36.413 17.395 36.5409Q17.6654 36.6687 17.9292 36.8097Q18.193 36.9507 18.4495 37.1045Q18.706 37.2583 18.9547 37.4244Q19.2034 37.5906 19.4437 37.7688Q19.6839 37.9469 19.9151 38.1367Q20.1463 38.3264 20.3679 38.5273Q20.5895 38.7281 20.801 38.9396Q21.0125 39.1511 21.2134 39.3727Q21.4142 39.5944 21.604 39.8256Q21.7937 40.0568 21.9719 40.297Q22.1501 40.5372 22.3162 40.7859Q22.4824 41.0346 22.6362 41.2912Q22.7899 41.5477 22.9309 41.8115Q23.0719 42.0753 23.1998 42.3456Q23.3277 42.616 23.4421 42.8923Q23.5566 43.1687 23.6574 43.4503Q23.7581 43.7319 23.8449 44.0181Q23.9318 44.3043 24.0044 44.5945Q24.0771 44.8846 24.1355 45.1779Q24.1938 45.4713 24.2377 45.7671Q24.2816 46.063 24.3109 46.3607Q24.3402 46.6583 24.3549 46.957Q24.3696 47.2558 24.3696 47.5549L24.3696 48.3195Q24.3696 48.6186 24.3549 48.9173Q24.3402 49.216 24.3109 49.5137Q24.2816 49.8114 24.2377 50.1072Q24.1938 50.4031 24.1355 50.6964Q24.0771 50.9898 24.0044 51.2799Q23.9318 51.57 23.8449 51.8562Q23.7581 52.1425 23.6574 52.4241Q23.5566 52.7057 23.4421 52.982Q23.3277 53.2583 23.1998 53.5287Q23.0719 53.7991 22.9309 54.0629Q22.7899 54.3267 22.6362 54.5832Q22.4824 54.8397 22.3162 55.0884Q22.1501 55.3371 21.9719 55.5773Q21.7937 55.8176 21.604 56.0488Q21.4142 56.28 21.2134 56.5016Q21.0125 56.7232 20.801 56.9347Q20.5895 57.1462 20.3679 57.3471Q20.1463 57.5479 19.9151 57.7377Q19.6839 57.9274 19.4437 58.1056Q19.2034 58.2837 18.9547 58.4499Q18.706 58.6161 18.4495 58.7699Q18.193 58.9236 17.9292 59.0646Q17.6654 59.2056 17.395 59.3335Q17.1246 59.4614 16.8483 59.5758Q16.572 59.6903 16.2904 59.791Q16.0088 59.8918 15.7226 59.9786Q15.4363 60.0655 15.1462 60.1381Q14.8561 60.2108 14.5627 60.2692Q14.2694 60.3275 13.9735 60.3714Q13.6777 60.4153 13.38 60.4446Q13.0824 60.4739 12.7836 60.4886Q12.4849 60.5033 12.1858 60.5033L12.1838 60.5033Q11.8847 60.5033 11.586 60.4886Q11.2872 60.4739 10.9896 60.4446Q10.6919 60.4153 10.3961 60.3714Q10.1002 60.3275 9.80685 60.2692Q9.5135 60.2108 9.22337 60.1381Q8.93324 60.0655 8.64702 59.9786Q8.3608 59.8918 8.07919 59.791Q7.79758 59.6903 7.52125 59.5758Q7.24492 59.4614 6.97455 59.3335Q6.70417 59.2056 6.44039 59.0646Q6.17661 58.9236 5.92007 58.7699Q5.66353 58.6161 5.41484 58.4499Q5.16615 58.2838 4.92591 58.1056Q4.68568 57.9274 4.45447 57.7377Q4.22327 57.5479 4.00166 57.3471Q3.78004 57.1462 3.56855 56.9347Q3.35706 56.7232 3.1562 56.5016Q2.95534 56.28 2.76559 56.0488Q2.57585 55.8176 2.39768 55.5774Q2.21951 55.3371 2.05334 55.0884Q1.88717 54.8397 1.7334 54.5832Q1.57964 54.3267 1.43865 54.0629Q1.29765 53.7991 1.16977 53.5287Q1.04189 53.2583 0.927435 52.982Q0.812977 52.7057 0.712214 52.4241Q0.611452 52.1425 0.52463 51.8562Q0.437807 51.57 0.365133 51.2799Q0.292459 50.9898 0.234108 50.6964Q0.175757 50.4031 0.131871 50.1072Q0.0879847 49.8114 0.0586683 49.5137Q0.0293518 49.216 0.0146759 48.9173Q0 48.6186 0 48.3195L0 47.5549Q0 47.2558 0.0146759 46.957Q0.0293518 46.6583 0.0586683 46.3607Q0.0879847 46.063 0.131871 45.7671Q0.175757 45.4713 0.234108 45.1779Q0.292459 44.8846 0.365133 44.5945Q0.437807 44.3043 0.52463 44.0181Q0.611452 43.7319 0.712215 43.4503Q0.812977 43.1687 0.927435 42.8923Q1.04189 42.616 1.16977 42.3456Q1.29765 42.0753 1.43865 41.8115Q1.57964 41.5477 1.7334 41.2912Q1.88717 41.0346 2.05334 40.7859Q2.21951 40.5372 2.39768 40.297Q2.57585 40.0568 2.76559 39.8256Q2.95534 39.5944 3.1562 39.3727Q3.35706 39.1511 3.56855 38.9396Q3.78004 38.7281 4.00166 38.5273Q4.22327 38.3264 4.45447 38.1367Q4.68568 37.9469 4.92591 37.7688Q5.16615 37.5906 5.41484 37.4244Q5.66353 37.2583 5.92007 37.1045Q6.17661 36.9507 6.44039 36.8097Q6.70417 36.6687 6.97455 36.5409Q7.24492 36.413 7.52125 36.2985Q7.79758 36.1841 8.07919 36.0833Q8.3608 35.9825 8.64702 35.8957Q8.93324 35.8089 9.22337 35.7362Q9.5135 35.6636 9.80685 35.6052Q10.1002 35.5469 10.3961 35.503Q10.6919 35.4591 10.9896 35.4298Q11.2872 35.4004 11.586 35.3858Q11.8847 35.3711 12.1838 35.3711Z" id="Rectangle-5-Copy" fill="#0044FF" fill-rule="evenodd" stroke="none" />
      <path d="M56.2297 0L56.2317 0Q56.5308 0 56.8295 0.0146759Q57.1283 0.0293518 57.4259 0.0586683Q57.7236 0.0879847 58.0194 0.131871Q58.3153 0.175757 58.6086 0.234108Q58.902 0.292459 59.1921 0.365133Q59.4822 0.437807 59.7685 0.52463Q60.0547 0.611453 60.3363 0.712215Q60.6179 0.812977 60.8942 0.927436Q61.1705 1.04189 61.4409 1.16977Q61.7113 1.29765 61.9751 1.43865Q62.2389 1.57964 62.4954 1.7334Q62.7519 1.88717 63.0006 2.05334Q63.2493 2.21951 63.4896 2.39768Q63.7298 2.57585 63.961 2.76559Q64.1922 2.95534 64.4138 3.1562Q64.6354 3.35706 64.8469 3.56855Q65.0584 3.78004 65.2593 4.00166Q65.4601 4.22327 65.6499 4.45448Q65.8396 4.68568 66.0178 4.92591Q66.196 5.16615 66.3621 5.41484Q66.5283 5.66353 66.6821 5.92007Q66.8358 6.17661 66.9768 6.44039Q67.1178 6.70417 67.2457 6.97455Q67.3736 7.24493 67.488 7.52126Q67.6025 7.79758 67.7033 8.0792Q67.804 8.36081 67.8908 8.64702Q67.9777 8.93324 68.0503 9.22337Q68.123 9.5135 68.1814 9.80685Q68.2397 10.1002 68.2836 10.3961Q68.3275 10.6919 68.3568 10.9896Q68.3861 11.2872 68.4008 11.586Q68.4155 11.8847 68.4155 12.1838L68.4155 12.9484Q68.4155 13.2475 68.4008 13.5462Q68.3861 13.845 68.3568 14.1426Q68.3275 14.4403 68.2836 14.7361Q68.2397 15.032 68.1814 15.3253Q68.123 15.6187 68.0503 15.9088Q67.9777 16.1989 67.8908 16.4852Q67.804 16.7714 67.7033 17.053Q67.6025 17.3346 67.488 17.6109Q67.3736 17.8872 67.2457 18.1576Q67.1178 18.428 66.9768 18.6918Q66.8358 18.9556 66.6821 19.2121Q66.5283 19.4686 66.3621 19.7173Q66.196 19.966 66.0178 20.2063Q65.8396 20.4465 65.6499 20.6777Q65.4601 20.9089 65.2593 21.1305Q65.0584 21.3521 64.8469 21.5636Q64.6354 21.7751 64.4138 21.976Q64.1922 22.1768 63.961 22.3666Q63.7298 22.5563 63.4896 22.7345Q63.2493 22.9127 63.0006 23.0788Q62.752 23.245 62.4954 23.3988Q62.2389 23.5525 61.9751 23.6935Q61.7113 23.8345 61.4409 23.9624Q61.1705 24.0903 60.8942 24.2047Q60.6179 24.3192 60.3363 24.42Q60.0547 24.5207 59.7685 24.6075Q59.4822 24.6944 59.1921 24.767Q58.902 24.8397 58.6086 24.8981Q58.3153 24.9564 58.0194 25.0003Q57.7236 25.0442 57.4259 25.0735Q57.1283 25.1028 56.8295 25.1175Q56.5308 25.1322 56.2317 25.1322L56.2297 25.1322Q55.9306 25.1322 55.6319 25.1175Q55.3331 25.1028 55.0355 25.0735Q54.7378 25.0442 54.442 25.0003Q54.1461 24.9564 53.8527 24.8981Q53.5594 24.8397 53.2693 24.767Q52.9791 24.6944 52.6929 24.6075Q52.4067 24.5207 52.1251 24.42Q51.8435 24.3192 51.5672 24.2047Q51.2908 24.0903 51.0204 23.9624Q50.7501 23.8345 50.4863 23.6935Q50.2225 23.5525 49.966 23.3988Q49.7094 23.245 49.4607 23.0788Q49.212 22.9127 48.9718 22.7345Q48.7316 22.5563 48.5004 22.3666Q48.2692 22.1768 48.0475 21.976Q47.8259 21.7751 47.6144 21.5636Q47.403 21.3521 47.2021 21.1305Q47.0012 20.9089 46.8115 20.6777Q46.6217 20.4465 46.4436 20.2063Q46.2654 19.966 46.0992 19.7173Q45.9331 19.4686 45.7793 19.2121Q45.6255 18.9556 45.4845 18.6918Q45.3436 18.428 45.2157 18.1576Q45.0878 17.8872 44.9733 17.6109Q44.8589 17.3346 44.7581 17.053Q44.6573 16.7714 44.5705 16.4852Q44.4837 16.1989 44.411 15.9088Q44.3383 15.6187 44.28 15.3253Q44.2216 15.032 44.1778 14.7361Q44.1339 14.4403 44.1046 14.1426Q44.0752 13.845 44.0606 13.5462Q44.0459 13.2475 44.0459 12.9484L44.0459 12.1838Q44.0459 11.8847 44.0606 11.586Q44.0752 11.2872 44.1046 10.9896Q44.1339 10.6919 44.1778 10.3961Q44.2216 10.1002 44.28 9.80685Q44.3383 9.5135 44.411 9.22337Q44.4837 8.93324 44.5705 8.64702Q44.6573 8.36081 44.7581 8.0792Q44.8589 7.79758 44.9733 7.52126Q45.0878 7.24493 45.2157 6.97455Q45.3436 6.70417 45.4845 6.44039Q45.6255 6.17661 45.7793 5.92007Q45.9331 5.66353 46.0992 5.41484Q46.2654 5.16615 46.4436 4.92591Q46.6217 4.68568 46.8115 4.45448Q47.0012 4.22327 47.2021 4.00166Q47.403 3.78004 47.6144 3.56855Q47.8259 3.35706 48.0476 3.1562Q48.2692 2.95534 48.5004 2.76559Q48.7316 2.57585 48.9718 2.39768Q49.212 2.21951 49.4607 2.05334Q49.7094 1.88717 49.966 1.7334Q50.2225 1.57964 50.4863 1.43865Q50.7501 1.29765 51.0204 1.16977Q51.2908 1.04189 51.5672 0.927436Q51.8435 0.812977 52.1251 0.712215Q52.4067 0.611453 52.6929 0.52463Q52.9791 0.437807 53.2693 0.365133Q53.5594 0.292459 53.8527 0.234108Q54.1461 0.175757 54.442 0.131871Q54.7378 0.0879847 55.0355 0.0586683Q55.3331 0.0293518 55.6319 0.0146759Q55.9306 0 56.2297 0Z" id="Rectangle-5-Copy-3" fill="#0044FF" fill-rule="evenodd" stroke="none" />
      <path d="M43.8652 51.1951C43.8652 49.3959 45.2796 47.9373 47.0243 47.9373C48.7689 47.9373 50.1833 49.3959 50.1833 51.1951C50.1833 52.9944 48.7689 54.453 47.0243 54.453C45.2796 54.453 43.8652 52.9944 43.8652 51.1951Z" id="Ellipse-5" fill="#1F61E3" fill-rule="evenodd" stroke="none" />
      <path d="M51.085 51.1951C51.085 49.3959 52.4993 47.9373 54.244 47.9373C55.9887 47.9373 57.403 49.3959 57.403 51.1951C57.403 52.9944 55.9887 54.453 54.244 54.453C52.4993 54.453 51.085 52.9944 51.085 51.1951Z" id="Ellipse-5-Copy" fill="#8E95D7" fill-rule="evenodd" stroke="none" />
      <path d="M58.3057 51.1951C58.3057 49.3959 59.72 47.9373 61.4647 47.9373C63.2094 47.9373 64.6237 49.3959 64.6237 51.1951C64.6237 52.9944 63.2094 54.453 61.4647 54.453C59.72 54.453 58.3057 52.9944 58.3057 51.1951Z" id="Ellipse-5-Copy-2" fill="#A3A7F9" fill-rule="evenodd" stroke="none" />
    </g>
  </g>
</svg>