<?xml version="1.0" encoding="utf-8"?>
<svg width="275px" height="61.92627px" viewBox="0 0 275 61.92627" version="1.1" xmlns:xlink="http://www.w3.org/1999/xlink" xmlns="http://www.w3.org/2000/svg">
  <g id="Group-4" transform="translate(2 2)">
    <g id="JAMES-COOLIDGE-2" transform="translate(67 5.963135)">
      <g id="JAMES" fill="#0A4BFF">
        <path d="M33.276 32.772C32.988 32.772 32.692 32.716 32.388 32.604Q31.932 32.436 31.62 32.148Q31.308 31.86 31.308 31.476Q31.308 31.404 31.332 31.236L35.964 16.14Q36.132 15.612 36.72 15.348Q37.308 15.084 37.98 15.084Q38.676 15.084 39.252 15.348Q39.828 15.612 39.996 16.14L44.628 31.236Q44.676 31.404 44.676 31.476Q44.676 31.836 44.352 32.136Q44.028 32.436 43.572 32.604Q43.116 32.772 42.684 32.772C42.428 32.772 42.208 32.728 42.024 32.64Q41.748 32.508 41.652 32.148L40.74 28.956L35.22 28.956L34.332 32.148Q34.236 32.508 33.948 32.64C33.756 32.728 33.532 32.772 33.276 32.772ZM77.664 32.532Q78.924 32.988 80.484 32.988Q82.14 32.988 83.424 32.4Q84.708 31.812 85.452 30.648Q86.196 29.484 86.196 27.78Q86.196 26.436 85.788 25.512Q85.38 24.588 84.684 23.964Q83.988 23.34 83.16 22.896Q82.332 22.452 81.516 22.116Q80.7 21.78 80.016 21.444Q79.332 21.108 78.912 20.676Q78.492 20.244 78.492 19.62Q78.492 19.02 78.804 18.624Q79.116 18.228 79.74 18Q80.364 17.772 81.204 17.772Q82.212 17.772 82.8 18Q83.388 18.228 83.76 18.456Q84.132 18.684 84.516 18.684Q84.948 18.684 85.224 18.384Q85.5 18.084 85.632 17.7Q85.764 17.316 85.764 17.028Q85.764 16.452 85.272 16.08Q84.78 15.708 84.024 15.492Q83.268 15.276 82.512 15.192Q81.756 15.108 81.204 15.108Q80.172 15.108 79.14 15.36Q78.108 15.612 77.256 16.176Q76.404 16.74 75.888 17.652Q75.372 18.564 75.372 19.908Q75.372 21.132 75.792 21.972Q76.212 22.812 76.896 23.388Q77.58 23.964 78.408 24.372Q79.236 24.78 80.052 25.14Q80.868 25.5 81.564 25.884Q82.26 26.268 82.668 26.796Q83.076 27.324 83.076 28.092Q83.076 28.812 82.704 29.268Q82.332 29.724 81.72 29.952Q81.108 30.18 80.388 30.18Q79.476 30.18 78.852 29.904Q78.228 29.628 77.796 29.256Q77.364 28.884 77.028 28.608Q76.692 28.332 76.308 28.332Q75.924 28.332 75.612 28.608Q75.3 28.884 75.12 29.28Q74.94 29.676 74.94 30.012Q74.94 30.708 75.672 31.392Q76.404 32.076 77.664 32.532ZM24.18 32.916Q22.548 32.916 21.24 32.34Q19.932 31.764 19.188 30.684Q18.444 29.604 18.444 28.14Q18.444 27.228 18.84 26.928Q19.236 26.628 20.028 26.628Q20.628 26.628 21.084 26.832Q21.54 27.036 21.564 27.612Q21.612 28.188 21.816 28.788Q22.02 29.388 22.548 29.784Q23.076 30.18 24.06 30.18Q25.284 30.18 25.944 29.496Q26.604 28.812 26.604 27.42L26.604 17.964L24.132 17.964Q23.676 17.964 23.424 17.556Q23.172 17.148 23.172 16.572Q23.172 16.092 23.4 15.66Q23.628 15.228 24.132 15.228L28.332 15.228Q28.86 15.228 29.292 15.48Q29.724 15.732 29.724 16.212L29.724 27.42Q29.724 29.412 28.968 30.624Q28.212 31.836 26.964 32.376Q25.716 32.916 24.18 32.916ZM46.8 32.52Q47.292 32.772 47.868 32.772Q48.468 32.772 48.948 32.52Q49.428 32.268 49.428 31.788L49.428 21.276L52.188 26.46Q52.404 26.82 52.68 26.952Q52.956 27.084 53.22 27.084Q53.508 27.084 53.796 26.94Q54.084 26.796 54.3 26.46L57.084 21.468L57.084 31.788Q57.084 32.268 57.576 32.52Q58.068 32.772 58.644 32.772Q59.22 32.772 59.712 32.52Q60.204 32.268 60.204 31.788L60.204 16.788Q60.204 15.924 59.724 15.576Q59.244 15.228 58.644 15.228Q58.092 15.228 57.684 15.348Q57.276 15.468 56.952 15.828Q56.628 16.188 56.196 16.884L53.244 22.26L50.316 16.884Q49.932 16.188 49.584 15.828Q49.236 15.468 48.84 15.348Q48.444 15.228 47.868 15.228Q47.292 15.228 46.8 15.576Q46.308 15.924 46.308 16.788L46.308 31.788Q46.308 32.268 46.8 32.52ZM64.452 32.772Q63.948 32.772 63.516 32.52Q63.084 32.268 63.084 31.788L63.084 16.212Q63.084 15.732 63.516 15.48Q63.948 15.228 64.452 15.228L72.996 15.228Q73.524 15.228 73.752 15.66Q73.98 16.092 73.98 16.572Q73.98 17.148 73.728 17.556Q73.476 17.964 72.996 17.964L66.204 17.964L66.204 22.764L69.852 22.764Q70.332 22.764 70.584 23.136Q70.836 23.508 70.836 24.012Q70.836 24.42 70.608 24.816Q70.38 25.212 69.852 25.212L66.204 25.212L66.204 30.036L72.996 30.036Q73.476 30.036 73.728 30.444Q73.98 30.852 73.98 31.428Q73.98 31.908 73.752 32.34C73.6 32.628 73.348 32.772 72.996 32.772L64.452 32.772ZM40.068 26.508L37.98 19.14L35.892 26.508L40.068 26.508Z" />
      </g>
      <g id="-COOLIDGE" fill="#0A4BFF">
        <path d="M95.832 32.412Q96.972 32.916 98.316 32.916Q99.9 32.916 101.016 32.352Q102.132 31.788 102.732 30.864Q103.332 29.94 103.332 28.86Q103.332 28.284 103.128 28.08Q102.924 27.876 102.516 27.876Q102.156 27.876 101.964 28.032Q101.772 28.188 101.748 28.5Q101.676 28.932 101.556 29.448Q101.436 29.964 101.112 30.408Q100.788 30.852 100.164 31.152Q99.54 31.452 98.46 31.452Q96.732 31.452 95.832 30.564Q94.932 29.676 94.932 27.78L94.932 20.34Q94.932 18.468 95.82 17.58Q96.708 16.692 98.388 16.692Q99.444 16.692 100.104 16.992Q100.764 17.292 101.112 17.748Q101.46 18.204 101.592 18.708Q101.724 19.212 101.748 19.596Q101.748 19.836 101.928 20.016Q102.108 20.196 102.54 20.196Q102.924 20.196 103.128 20.004Q103.332 19.812 103.332 19.236Q103.332 18.156 102.744 17.244Q102.156 16.332 101.052 15.78Q99.948 15.228 98.364 15.228Q96.996 15.228 95.856 15.732Q94.716 16.236 94.032 17.364Q93.348 18.492 93.348 20.34L93.348 27.78Q93.348 29.652 94.02 30.78Q94.692 31.908 95.832 32.412ZM108.396 32.412Q109.524 32.916 110.916 32.916Q112.332 32.916 113.46 32.412Q114.588 31.908 115.26 30.78Q115.932 29.652 115.932 27.78L115.932 20.34Q115.932 18.492 115.26 17.364Q114.588 16.236 113.46 15.732Q112.332 15.228 110.916 15.228Q109.5 15.228 108.384 15.732Q107.268 16.236 106.608 17.364Q105.948 18.492 105.948 20.34L105.948 27.78Q105.948 29.652 106.608 30.78Q107.268 31.908 108.396 32.412ZM124.188 32.916Q122.796 32.916 121.668 32.412Q120.54 31.908 119.88 30.78Q119.22 29.652 119.22 27.78L119.22 20.34Q119.22 18.492 119.88 17.364Q120.54 16.236 121.656 15.732Q122.772 15.228 124.188 15.228Q125.604 15.228 126.732 15.732Q127.86 16.236 128.532 17.364Q129.204 18.492 129.204 20.34L129.204 27.78Q129.204 29.652 128.532 30.78Q127.86 31.908 126.732 32.412Q125.604 32.916 124.188 32.916ZM132.888 32.616C133.04 32.72 133.204 32.772 133.38 32.772L141.084 32.772Q141.372 32.772 141.492 32.544Q141.612 32.316 141.612 32.028Q141.612 31.764 141.492 31.536Q141.372 31.308 141.084 31.308L134.244 31.308L134.244 15.804Q134.244 15.492 133.992 15.36Q133.74 15.228 133.452 15.228Q133.14 15.228 132.9 15.36Q132.66 15.492 132.66 15.804L132.66 32.148Q132.66 32.46 132.888 32.616ZM144.54 32.772C144.332 32.772 144.148 32.72 143.988 32.616Q143.748 32.46 143.748 32.148L143.748 15.804Q143.748 15.516 143.988 15.372Q144.228 15.228 144.54 15.228Q144.828 15.228 145.08 15.372Q145.332 15.516 145.332 15.804L145.332 32.148Q145.332 32.46 145.08 32.616C144.912 32.72 144.732 32.772 144.54 32.772ZM149.184 32.604C149.32 32.716 149.492 32.772 149.7 32.772L153.948 32.772Q155.364 32.772 156.504 32.268Q157.644 31.764 158.304 30.636Q158.964 29.508 158.964 27.636L158.964 20.34Q158.964 18.492 158.304 17.364Q157.644 16.236 156.504 15.732Q155.364 15.228 153.948 15.228L149.7 15.228Q149.388 15.228 149.184 15.396Q148.98 15.564 148.98 15.804L148.98 32.172Q148.98 32.436 149.184 32.604ZM167.22 32.916Q165.828 32.916 164.7 32.412Q163.572 31.908 162.912 30.78Q162.252 29.652 162.252 27.78L162.252 20.34Q162.252 18.492 162.912 17.364Q163.572 16.236 164.688 15.732Q165.804 15.228 167.196 15.228Q168.732 15.228 169.86 15.768Q170.988 16.308 171.612 17.244Q172.236 18.18 172.236 19.38Q172.236 19.836 172.02 20.016Q171.804 20.196 171.444 20.196Q171.132 20.196 170.904 20.052Q170.676 19.908 170.652 19.596Q170.532 18.66 170.124 18.012Q169.716 17.364 168.996 17.028Q168.276 16.692 167.22 16.692Q165.612 16.692 164.724 17.58Q163.836 18.468 163.836 20.34L163.836 27.78Q163.836 29.652 164.724 30.552Q165.612 31.452 167.22 31.452Q168.828 31.452 169.74 30.552Q170.652 29.652 170.652 27.78L170.652 24.924L167.436 24.924Q167.148 24.924 166.992 24.708Q166.836 24.492 166.836 24.228Q166.836 23.988 166.992 23.772Q167.148 23.556 167.436 23.556L171.636 23.556Q171.924 23.556 172.08 23.736Q172.236 23.916 172.236 24.18L172.236 27.78Q172.236 29.652 171.564 30.78Q170.892 31.908 169.764 32.412Q168.636 32.916 167.22 32.916ZM175.656 32.616C175.808 32.72 175.972 32.772 176.148 32.772L184.692 32.772Q185.004 32.772 185.148 32.544Q185.292 32.316 185.292 32.052Q185.292 31.74 185.136 31.524Q184.98 31.308 184.692 31.308L177.012 31.308L177.012 24.66L180.78 24.66Q181.092 24.66 181.236 24.444Q181.38 24.228 181.38 24.012Q181.38 23.724 181.224 23.508Q181.068 23.292 180.78 23.292L177.012 23.292L177.012 16.692L184.692 16.692Q184.98 16.692 185.136 16.464Q185.292 16.236 185.292 15.924Q185.292 15.684 185.148 15.456Q185.004 15.228 184.692 15.228L176.148 15.228Q175.884 15.228 175.656 15.384Q175.428 15.54 175.428 15.828L175.428 32.148Q175.428 32.46 175.656 32.616ZM113.436 30.564Q112.524 31.452 110.916 31.452Q109.308 31.452 108.42 30.564Q107.532 29.676 107.532 27.78L107.532 20.34Q107.532 18.468 108.42 17.58Q109.308 16.692 110.916 16.692Q112.524 16.692 113.436 17.58Q114.348 18.468 114.348 20.34L114.348 27.78Q114.348 29.676 113.436 30.564ZM124.188 31.452Q125.796 31.452 126.708 30.564Q127.62 29.676 127.62 27.78L127.62 20.34Q127.62 18.468 126.708 17.58Q125.796 16.692 124.188 16.692Q122.58 16.692 121.692 17.58Q120.804 18.468 120.804 20.34L120.804 27.78Q120.804 29.676 121.692 30.564Q122.58 31.452 124.188 31.452ZM153.948 31.308L150.564 31.308L150.564 16.692L153.948 16.692Q155.556 16.692 156.468 17.58Q157.38 18.468 157.38 20.34L157.38 27.636Q157.38 29.532 156.468 30.42Q155.556 31.308 153.948 31.308Z" />
      </g>
    </g>
    <g id="Group-40-Copy-3">
      <path d="M9.04311 0L51.0697 0Q51.251 0 51.4319 0.00889162Q51.6129 0.0177832 51.7933 0.035545Q51.9736 0.0533069 52.1529 0.0798961Q52.3321 0.106485 52.5098 0.141838Q52.6876 0.17719 52.8634 0.221221Q53.0391 0.265252 53.2125 0.317855Q53.386 0.370458 53.5566 0.431506Q53.7272 0.492554 53.8946 0.561901Q54.062 0.631247 54.2258 0.708725Q54.3897 0.786203 54.5495 0.871625Q54.7093 0.957048 54.8647 1.05021Q55.0201 1.14337 55.1708 1.24405Q55.3215 1.34472 55.467 1.45267Q55.6126 1.56062 55.7527 1.67558Q55.8927 1.79053 56.027 1.91223Q56.1613 2.03392 56.2894 2.16206Q56.4175 2.29019 56.5392 2.42446Q56.6609 2.55873 56.7759 2.69881Q56.8909 2.83889 56.9988 2.98444Q57.1067 3.12999 57.2074 3.28066Q57.3081 3.43133 57.4013 3.58676Q57.4944 3.74219 57.5798 3.90201Q57.6653 4.06182 57.7427 4.22563Q57.8202 4.38945 57.8896 4.55686Q57.9589 4.72428 58.02 4.8949Q58.081 5.06552 58.1336 5.23893Q58.1862 5.41233 58.2302 5.58812Q58.2743 5.7639 58.3096 5.94163Q58.345 6.11935 58.3716 6.2986Q58.3982 6.47785 58.4159 6.65819Q58.4337 6.83853 58.4426 7.01953Q58.4515 7.20052 58.4515 7.38173L58.4515 7.38373Q58.4515 7.56494 58.4426 7.74593Q58.4337 7.92693 58.4159 8.10727Q58.3982 8.2876 58.3716 8.46685Q58.345 8.6461 58.3096 8.82383Q58.2743 9.00156 58.2302 9.17734Q58.1862 9.35312 58.1336 9.52653Q58.081 9.69994 58.02 9.87056Q57.9589 10.0412 57.8896 10.2086Q57.8202 10.376 57.7427 10.5398Q57.6653 10.7036 57.5798 10.8635Q57.4944 11.0233 57.4013 11.1787Q57.3081 11.3341 57.2074 11.4848Q57.1067 11.6355 56.9988 11.781Q56.8909 11.9266 56.7759 12.0667Q56.6609 12.2067 56.5392 12.341Q56.4175 12.4753 56.2894 12.6034Q56.1613 12.7315 56.027 12.8532Q55.8927 12.9749 55.7527 13.0899Q55.6126 13.2048 55.467 13.3128Q55.3215 13.4207 55.1708 13.5214Q55.0201 13.6221 54.8647 13.7153Q54.7093 13.8084 54.5495 13.8938Q54.3897 13.9793 54.2258 14.0567Q54.062 14.1342 53.8946 14.2036Q53.7272 14.2729 53.5566 14.334Q53.3859 14.395 53.2125 14.4476Q53.0391 14.5002 52.8634 14.5442Q52.6876 14.5883 52.5098 14.6236Q52.3321 14.659 52.1529 14.6856Q51.9736 14.7122 51.7933 14.7299Q51.6129 14.7477 51.4319 14.7566Q51.251 14.7655 51.0697 14.7655L9.04311 14.7655Q8.8619 14.7655 8.6809 14.7566Q8.49991 14.7477 8.31957 14.7299Q8.13923 14.7122 7.95998 14.6856Q7.78073 14.659 7.603 14.6236Q7.42527 14.5883 7.24949 14.5442Q7.07371 14.5002 6.9003 14.4476Q6.7269 14.395 6.55628 14.334Q6.38566 14.2729 6.21824 14.2036Q6.05082 14.1342 5.88701 14.0567Q5.7232 13.9793 5.56338 13.8938Q5.40357 13.8084 5.24814 13.7152Q5.09271 13.6221 4.94204 13.5214Q4.79137 13.4207 4.64582 13.3128Q4.50027 13.2048 4.36019 13.0899Q4.22011 12.9749 4.08584 12.8532Q3.95157 12.7315 3.82344 12.6034Q3.6953 12.4753 3.57361 12.341Q3.45191 12.2067 3.33695 12.0666Q3.22199 11.9266 3.11405 11.781Q3.0061 11.6355 2.90542 11.4848Q2.80475 11.3341 2.71159 11.1787Q2.61842 11.0233 2.533 10.8635Q2.44758 10.7036 2.3701 10.5398Q2.29262 10.376 2.22328 10.2086Q2.15393 10.0412 2.09288 9.87056Q2.03183 9.69994 1.97923 9.52653Q1.92663 9.35312 1.8826 9.17734Q1.83857 9.00156 1.80321 8.82383Q1.76786 8.6461 1.74127 8.46685Q1.71468 8.2876 1.69692 8.10727Q1.67916 7.92693 1.67027 7.74593Q1.66138 7.56494 1.66138 7.38373L1.66138 7.38173Q1.66138 7.20052 1.67027 7.01953Q1.67916 6.83853 1.69692 6.65819Q1.71468 6.47785 1.74127 6.2986Q1.76786 6.11935 1.80321 5.94163Q1.83857 5.7639 1.8826 5.58812Q1.92663 5.41233 1.97923 5.23893Q2.03183 5.06552 2.09288 4.8949Q2.15393 4.72428 2.22328 4.55686Q2.29262 4.38945 2.3701 4.22563Q2.44758 4.06182 2.533 3.90201Q2.61842 3.74219 2.71159 3.58676Q2.80475 3.43133 2.90542 3.28066Q3.0061 3.12999 3.11405 2.98444Q3.22199 2.83889 3.33695 2.69881Q3.45191 2.55873 3.57361 2.42446Q3.6953 2.29019 3.82344 2.16206Q3.95157 2.03392 4.08584 1.91223Q4.22011 1.79053 4.36019 1.67558Q4.50027 1.56062 4.64582 1.45267Q4.79137 1.34472 4.94204 1.24405Q5.09271 1.14337 5.24814 1.05021Q5.40357 0.957048 5.56338 0.871625Q5.7232 0.786203 5.88701 0.708725Q6.05082 0.631247 6.21824 0.561901Q6.38566 0.492554 6.55628 0.431506Q6.7269 0.370458 6.9003 0.317855Q7.07371 0.265252 7.24949 0.221221Q7.42527 0.17719 7.603 0.141838Q7.78073 0.106485 7.95998 0.0798961Q8.13923 0.0533069 8.31957 0.035545Q8.49991 0.0177832 8.6809 0.00889162Q8.8619 0 9.04311 0L9.04311 0Z" id="Rectangle-6" fill="#FBCD00" fill-rule="evenodd" stroke="none" />
      <path d="M29.6339 6.81445L29.6359 6.81445Q29.7981 6.81445 29.9601 6.82241Q30.1221 6.83037 30.2835 6.84627Q30.4449 6.86217 30.6053 6.88596Q30.7658 6.90976 30.9248 6.94141Q31.0839 6.97305 31.2413 7.01246Q31.3986 7.05187 31.5538 7.09895Q31.709 7.14603 31.8617 7.20067Q32.0144 7.25531 32.1643 7.31738Q32.3141 7.37945 32.4607 7.4488Q32.6074 7.51814 32.7504 7.5946Q32.8934 7.67106 33.0326 7.75444Q33.1717 7.83783 33.3065 7.92794Q33.4414 8.01805 33.5717 8.11467Q33.702 8.21128 33.8273 8.31418Q33.9527 8.41707 34.0729 8.526Q34.1931 8.63492 34.3077 8.74961Q34.4224 8.86429 34.5314 8.98447Q34.6403 9.10465 34.7432 9.23003Q34.8461 9.3554 34.9427 9.48568Q35.0393 9.61595 35.1294 9.75081Q35.2195 9.88567 35.3029 10.0248Q35.3863 10.1639 35.4627 10.3069Q35.5392 10.45 35.6086 10.5966Q35.6779 10.7432 35.74 10.8931Q35.802 11.0429 35.8567 11.1956Q35.9113 11.3483 35.9584 11.5036Q36.0055 11.6588 36.0449 11.8161Q36.0843 11.9734 36.1159 12.1325Q36.1476 12.2916 36.1714 12.452Q36.1952 12.6125 36.2111 12.7739Q36.227 12.9353 36.2349 13.0973Q36.2429 13.2593 36.2429 13.4215L36.2429 49.047Q36.2429 49.2092 36.2349 49.3712Q36.227 49.5332 36.2111 49.6946Q36.1952 49.856 36.1714 50.0165Q36.1476 50.1769 36.1159 50.336Q36.0843 50.4951 36.0449 50.6524Q36.0055 50.8097 35.9584 50.9649Q35.9113 51.1201 35.8567 51.2729Q35.802 51.4256 35.74 51.5754Q35.6779 51.7253 35.6086 51.8719Q35.5392 52.0185 35.4627 52.1615Q35.3863 52.3046 35.3029 52.4437Q35.2195 52.5828 35.1294 52.7177Q35.0393 52.8525 34.9427 52.9828Q34.8461 53.1131 34.7432 53.2385Q34.6403 53.3638 34.5314 53.484Q34.4224 53.6042 34.3077 53.7189Q34.1931 53.8336 34.0729 53.9425Q33.9527 54.0514 33.8273 54.1543Q33.702 54.2572 33.5717 54.3538Q33.4414 54.4504 33.3065 54.5406Q33.1717 54.6307 33.0326 54.714Q32.8934 54.7974 32.7504 54.8739Q32.6074 54.9503 32.4607 55.0197Q32.3141 55.089 32.1643 55.1511Q32.0144 55.2132 31.8617 55.2678Q31.709 55.3225 31.5538 55.3695Q31.3986 55.4166 31.2413 55.456Q31.0839 55.4954 30.9248 55.5271Q30.7658 55.5587 30.6053 55.5825Q30.4449 55.6063 30.2835 55.6222Q30.1221 55.6381 29.9601 55.6461Q29.7981 55.654 29.6359 55.654L29.6339 55.654Q29.4717 55.654 29.3097 55.6461Q29.1477 55.6381 28.9863 55.6222Q28.8249 55.6063 28.6644 55.5825Q28.504 55.5587 28.3449 55.5271Q28.1858 55.4954 28.0285 55.456Q27.8712 55.4166 27.716 55.3695Q27.5608 55.3225 27.408 55.2678Q27.2553 55.2132 27.1055 55.1511Q26.9556 55.089 26.809 55.0197Q26.6624 54.9503 26.5193 54.8739Q26.3763 54.7974 26.2372 54.714Q26.0981 54.6307 25.9632 54.5406Q25.8283 54.4504 25.6981 54.3538Q25.5678 54.2572 25.4424 54.1543Q25.317 54.0514 25.1969 53.9425Q25.0767 53.8336 24.962 53.7189Q24.8473 53.6042 24.7384 53.484Q24.6295 53.3638 24.5266 53.2385Q24.4237 53.1131 24.3271 52.9828Q24.2304 52.8525 24.1403 52.7177Q24.0502 52.5828 23.9668 52.4437Q23.8835 52.3046 23.807 52.1615Q23.7305 52.0185 23.6612 51.8719Q23.5919 51.7253 23.5298 51.5754Q23.4677 51.4256 23.4131 51.2729Q23.3584 51.1201 23.3114 50.9649Q23.2643 50.8097 23.2249 50.6524Q23.1854 50.4951 23.1538 50.336Q23.1222 50.1769 23.0984 50.0165Q23.0746 49.856 23.0587 49.6946Q23.0428 49.5332 23.0348 49.3712Q23.0269 49.2092 23.0269 49.047L23.0269 13.4215Q23.0269 13.2593 23.0348 13.0973Q23.0428 12.9353 23.0587 12.7739Q23.0746 12.6125 23.0984 12.452Q23.1222 12.2916 23.1538 12.1325Q23.1854 11.9734 23.2249 11.8161Q23.2643 11.6588 23.3114 11.5036Q23.3584 11.3483 23.4131 11.1956Q23.4677 11.0429 23.5298 10.8931Q23.5919 10.7432 23.6612 10.5966Q23.7305 10.45 23.807 10.3069Q23.8835 10.1639 23.9668 10.0248Q24.0502 9.88567 24.1403 9.75081Q24.2304 9.61595 24.3271 9.48568Q24.4237 9.3554 24.5266 9.23002Q24.6295 9.10465 24.7384 8.98447Q24.8473 8.86429 24.962 8.7496Q25.0767 8.63492 25.1969 8.52599Q25.317 8.41707 25.4424 8.31418Q25.5678 8.21128 25.6981 8.11466Q25.8283 8.01805 25.9632 7.92794Q26.0981 7.83783 26.2372 7.75444Q26.3763 7.67106 26.5193 7.5946Q26.6624 7.51814 26.809 7.4488Q26.9556 7.37945 27.1055 7.31738Q27.2553 7.25531 27.408 7.20067Q27.5607 7.14603 27.716 7.09895Q27.8712 7.05187 28.0285 7.01246Q28.1858 6.97305 28.3449 6.94141Q28.504 6.90976 28.6644 6.88596Q28.8249 6.86217 28.9863 6.84627Q29.1477 6.83037 29.3097 6.82241Q29.4717 6.81445 29.6339 6.81445Z" id="Rectangle-7" fill="#FBCD00" fill-opacity="0.5411765" fill-rule="evenodd" stroke="none" />
      <path d="M7.81383 44.2966L29.429 44.2966Q29.5962 44.2966 29.7633 44.3048Q29.9304 44.313 30.0968 44.3294Q30.2633 44.3458 30.4288 44.3704Q30.5942 44.3949 30.7583 44.4276Q30.9223 44.4602 31.0846 44.5008Q31.2468 44.5415 31.4069 44.59Q31.567 44.6386 31.7245 44.6949Q31.882 44.7513 32.0365 44.8153Q32.191 44.8793 32.3422 44.9508Q32.4935 45.0223 32.641 45.1012Q32.7885 45.18 32.932 45.266Q33.0754 45.352 33.2145 45.445Q33.3536 45.5379 33.488 45.6375Q33.6223 45.7372 33.7516 45.8433Q33.8809 45.9494 34.0048 46.0617Q34.1288 46.1741 34.2471 46.2924Q34.3653 46.4106 34.4777 46.5346Q34.59 46.6585 34.6961 46.7878Q34.8022 46.9171 34.9019 47.0515Q35.0015 47.1858 35.0945 47.3249Q35.1874 47.464 35.2734 47.6074Q35.3594 47.7509 35.4382 47.8984Q35.5171 48.046 35.5886 48.1972Q35.6601 48.3484 35.7241 48.5029Q35.7881 48.6575 35.8445 48.8149Q35.9008 48.9724 35.9494 49.1325Q35.998 49.2926 36.0386 49.4548Q36.0792 49.6171 36.1119 49.7811Q36.1445 49.9452 36.169 50.1107Q36.1936 50.2761 36.21 50.4426Q36.2264 50.6091 36.2346 50.7761Q36.2428 50.9432 36.2428 51.1105L36.2428 51.1125Q36.2428 51.2797 36.2346 51.4468Q36.2264 51.6139 36.21 51.7803Q36.1936 51.9468 36.169 52.1123Q36.1445 52.2777 36.1119 52.4418Q36.0792 52.6058 36.0386 52.7681Q35.998 52.9303 35.9494 53.0904Q35.9008 53.2505 35.8445 53.408Q35.7881 53.5655 35.7241 53.72Q35.6601 53.8745 35.5886 54.0257Q35.5171 54.177 35.4382 54.3245Q35.3594 54.472 35.2734 54.6155Q35.1874 54.7589 35.0945 54.898Q35.0015 55.0371 34.9019 55.1714Q34.8022 55.3058 34.6961 55.4351Q34.59 55.5644 34.4777 55.6883Q34.3653 55.8123 34.2471 55.9306Q34.1288 56.0488 34.0048 56.1612Q33.8809 56.2735 33.7516 56.3796Q33.6223 56.4857 33.488 56.5854Q33.3536 56.685 33.2145 56.7779Q33.0754 56.8709 32.932 56.9569Q32.7885 57.0429 32.641 57.1217Q32.4935 57.2006 32.3423 57.2721Q32.191 57.3436 32.0365 57.4076Q31.882 57.4716 31.7245 57.528Q31.567 57.5843 31.4069 57.6329Q31.2468 57.6814 31.0846 57.7221Q30.9223 57.7627 30.7583 57.7954Q30.5942 57.828 30.4288 57.8525Q30.2633 57.8771 30.0968 57.8935Q29.9304 57.9099 29.7633 57.9181Q29.5962 57.9263 29.429 57.9263L7.81383 57.9263Q7.64656 57.9263 7.47949 57.9181Q7.31242 57.9099 7.14596 57.8935Q6.97949 57.8771 6.81403 57.8525Q6.64857 57.828 6.48452 57.7954Q6.32046 57.7627 6.1582 57.7221Q5.99595 57.6814 5.83588 57.6329Q5.67581 57.5843 5.51832 57.528Q5.36083 57.4716 5.20629 57.4076Q5.05175 57.3436 4.90054 57.2721Q4.74933 57.2006 4.60181 57.1217Q4.45429 57.0429 4.31082 56.9569Q4.16735 56.8709 4.02827 56.7779Q3.88919 56.685 3.75484 56.5854Q3.62048 56.4857 3.49118 56.3796Q3.36188 56.2735 3.23794 56.1612Q3.114 56.0488 2.99572 55.9306Q2.87745 55.8123 2.76511 55.6883Q2.65278 55.5644 2.54667 55.4351Q2.44055 55.3058 2.34091 55.1714Q2.24127 55.0371 2.14834 54.898Q2.05541 54.7589 1.96941 54.6155Q1.88342 54.472 1.80457 54.3245Q1.72572 54.177 1.6542 54.0257Q1.58268 53.8745 1.51867 53.72Q1.45466 53.5655 1.39831 53.408Q1.34196 53.2505 1.2934 53.0904Q1.24485 52.9303 1.2042 52.7681Q1.16356 52.6058 1.13093 52.4418Q1.09829 52.2777 1.07375 52.1123Q1.04921 51.9468 1.03281 51.7803Q1.01642 51.6139 1.00821 51.4468Q1 51.2797 1 51.1125L1 51.1105Q1 50.9432 1.00821 50.7761Q1.01642 50.6091 1.03281 50.4426Q1.04921 50.2761 1.07375 50.1107Q1.09829 49.9452 1.13093 49.7811Q1.16356 49.6171 1.2042 49.4548Q1.24485 49.2926 1.2934 49.1325Q1.34196 48.9724 1.39831 48.8149Q1.45466 48.6574 1.51867 48.5029Q1.58268 48.3484 1.6542 48.1972Q1.72572 48.046 1.80457 47.8984Q1.88342 47.7509 1.96941 47.6074Q2.05541 47.464 2.14834 47.3249Q2.24127 47.1858 2.34091 47.0515Q2.44055 46.9171 2.54667 46.7878Q2.65278 46.6585 2.76511 46.5346Q2.87745 46.4106 2.99572 46.2924Q3.114 46.1741 3.23794 46.0617Q3.36188 45.9494 3.49118 45.8433Q3.62048 45.7372 3.75484 45.6375Q3.88919 45.5379 4.02827 45.445Q4.16735 45.352 4.31082 45.266Q4.45429 45.18 4.60181 45.1012Q4.74933 45.0223 4.90054 44.9508Q5.05175 44.8793 5.20629 44.8153Q5.36083 44.7513 5.51832 44.6949Q5.67581 44.6386 5.83588 44.59Q5.99595 44.5415 6.1582 44.5008Q6.32046 44.4602 6.48452 44.4276Q6.64857 44.3949 6.81403 44.3704Q6.97949 44.3458 7.14596 44.3294Q7.31242 44.313 7.47949 44.3048Q7.64656 44.2966 7.81383 44.2966Z" id="Rectangle-8" fill="#FBCD00" fill-rule="evenodd" stroke="none" />
      <path d="M12.7648 29.5514C11.0249 33.4294 9.57259 35.5251 6.16679 35.287C2.76099 35.0488 0.193125 32.0948 0.431282 28.689C0.669438 25.2832 8.23368 21.235 11.6395 21.4732C15.0453 21.7113 14.5046 25.6735 12.7648 29.5514Z" id="Ellipse-Copy" fill="#0A4BFF" fill-rule="evenodd" stroke="none" />
      <path d="M56.2283 22.4324L45.1934 23.9473" id="Line-15-Copy-46" fill="none" fill-rule="evenodd" stroke="#0A4BFF" stroke-width="4" stroke-linecap="round" />
      <path d="M56.2282 52.2471L45.2639 48.6104" id="Line-15-Copy-47" fill="none" fill-rule="evenodd" stroke="#0A4BFF" stroke-width="4" stroke-linecap="round" />
      <path d="M58.5 37.3399L45.3049 35.6531" id="Line-15-Copy-48" fill="none" fill-rule="evenodd" stroke="#0A4BFF" stroke-opacity="0.9" stroke-width="4" stroke-linecap="round" />
    </g>
  </g>
</svg>
